<svg width="660" height="660" viewBox="0 0 660 660" fill="none" xmlns="http://www.w3.org/2000/svg">
<path d="M409.333 608.059C409.333 623.591 396.751 636.315 381.327 634.891C350.832 632.074 320.878 624.668 292.487 612.875C255.442 597.488 221.783 574.935 193.43 546.503C165.077 518.071 142.586 484.318 127.242 447.171C111.898 410.023 104 370.208 104 330C104 289.792 111.898 249.977 127.242 212.829C142.586 175.682 165.077 141.929 193.43 113.497C221.783 85.0654 255.442 62.5122 292.487 47.1252C320.878 35.3323 350.832 27.9257 381.328 25.1091C396.751 23.6845 409.333 36.4092 409.333 51.9406V183.524C328.66 183.524 263.262 249.104 263.262 330.001C263.262 410.897 328.658 476.476 409.329 476.478V183.525C490.002 183.525 555.4 249.104 555.4 330.001C555.4 410.897 490.004 476.477 409.333 476.478V608.059Z" fill="white"/>
<path d="M409.005 476.4L409.001 183.599C489.856 183.599 555.401 249.145 555.401 329.999C555.401 410.853 489.858 476.398 409.005 476.4Z" fill="white"/>
</svg>
