<svg width="410" height="554" viewBox="0 0 410 554" fill="none" xmlns="http://www.w3.org/2000/svg">
<g clip-path="url(#clip0_2107_945)">
<path d="M277.328 529.165C277.328 543.272 265.9 554.83 251.892 553.536C224.193 550.978 196.987 544.25 171.199 533.539C137.552 519.563 106.98 499.079 81.2275 473.255C55.4752 447.431 35.0474 416.774 21.1103 383.033C7.1733 349.293 0 313.13 0 276.609C0 240.089 7.1733 203.926 21.1103 170.185C35.0474 136.445 55.4752 105.787 81.2275 79.9632C106.98 54.1393 137.552 33.6547 171.199 19.6789C196.987 8.96765 224.193 2.24041 251.892 -0.317935C265.9 -1.61182 277.328 9.94577 277.328 24.0527V143.568C204.055 143.568 144.655 203.133 144.655 276.61C144.655 350.086 204.053 409.65 277.325 409.652V143.568C350.599 143.568 409.999 203.133 409.999 276.61C409.999 350.087 350.6 409.651 277.328 409.653V529.165Z" fill="white"/>
<path d="M277.031 409.581L277.028 143.636C350.466 143.636 410 203.17 410 276.609C410 350.046 350.468 409.579 277.031 409.581Z" fill="white"/>
</g>
<defs>
<clipPath id="clip0_2107_945">
<rect width="410" height="554" fill="white"/>
</clipPath>
</defs>
</svg>
