<svg width="660" height="660" viewBox="0 0 660 660" fill="none" xmlns="http://www.w3.org/2000/svg">
<path d="M331.207 608.059C331.207 623.591 318.625 636.315 303.202 634.891C272.706 632.074 242.752 624.668 214.361 612.875C177.316 597.488 143.657 574.935 115.304 546.503C86.9511 518.071 64.4605 484.318 49.1161 447.171C33.7717 410.023 25.874 370.208 25.874 330C25.874 289.792 33.7717 249.977 49.1161 212.829C64.4605 175.682 86.9511 141.929 115.304 113.497C143.657 85.0654 177.316 62.5122 214.361 47.1252C242.752 35.3323 272.706 27.9257 303.202 25.1091C318.625 23.6845 331.207 36.4092 331.207 51.9406V183.524C250.534 183.524 185.136 249.104 185.136 330.001C185.136 410.897 250.532 476.476 331.203 476.478V183.525C411.876 183.525 477.274 249.104 477.274 330.001C477.274 410.897 411.878 476.477 331.207 476.478V608.059Z" fill="white"/>
<path d="M330.879 476.4L330.875 183.599C411.73 183.599 477.275 249.145 477.275 329.999C477.275 410.853 411.732 476.398 330.879 476.4Z" fill="white"/>
</svg>
