<svg width="1942" height="554" viewBox="0 0 1942 554" fill="none" xmlns="http://www.w3.org/2000/svg">
<g clip-path="url(#clip0_2107_495)">
<path d="M277.511 529.514C277.511 543.63 266.075 555.196 252.058 553.901C224.341 551.341 197.116 544.609 171.312 533.891C137.643 519.906 107.05 499.408 81.281 473.567C55.5118 447.726 35.0705 417.048 21.1242 383.286C7.17803 349.523 0 313.336 0 276.792C0 240.247 7.17803 204.06 21.1243 170.297C35.0705 136.535 55.5118 105.857 81.281 80.0162C107.05 54.1753 137.643 33.6771 171.312 19.6921C197.117 8.97383 224.341 2.24216 252.058 -0.31787C266.075 -1.61261 277.511 9.9526 277.511 24.0688V143.662C204.189 143.663 144.75 203.267 144.75 276.792C144.75 350.317 204.188 409.92 277.508 409.922V143.663C350.83 143.663 410.269 203.267 410.269 276.793C410.269 350.317 350.831 409.921 277.511 409.923V529.514Z" fill="white"/>
<path d="M277.213 409.851L277.21 143.731C350.697 143.731 410.27 203.304 410.27 276.791C410.27 350.277 350.699 409.849 277.213 409.851Z" fill="white"/>
<path d="M1797.74 266.183C1797.74 273.013 1801.48 278.217 1808.96 281.795C1816.77 285.048 1828.96 288.463 1845.55 292.041C1864.42 295.944 1880.19 300.335 1892.88 305.214C1905.56 310.093 1916.46 317.899 1925.57 328.632C1935 339.041 1939.71 353.189 1939.71 371.078C1939.71 387.016 1934.84 400.84 1925.08 412.549C1915.65 424.258 1902.96 433.203 1887.02 439.383C1871.08 445.237 1853.68 448.165 1834.82 448.165C1809.12 448.165 1787.01 443.286 1768.47 433.528C1750.25 423.77 1736.75 409.784 1727.97 391.57L1777.74 365.712C1786.52 388.154 1805.55 399.376 1834.82 399.376C1847.5 399.376 1858.4 396.936 1867.51 392.058C1876.61 387.179 1881.17 380.186 1881.17 371.078C1881.17 363.272 1876.94 357.58 1868.48 354.002C1860.35 350.099 1847.02 345.871 1828.48 341.317C1809.29 336.764 1793.67 332.21 1781.64 327.656C1769.6 323.103 1759.2 316.11 1750.41 306.677C1741.63 296.92 1737.24 284.072 1737.24 268.134C1737.24 252.522 1741.63 239.024 1750.41 227.64C1759.2 215.93 1771.07 206.986 1786.03 200.806C1800.99 194.626 1817.42 191.536 1835.31 191.536C1856.45 191.536 1875.31 195.927 1891.9 204.709C1908.81 213.491 1921.82 226.013 1930.93 242.276L1881.66 267.159C1873.2 248.944 1857.75 239.837 1835.31 239.837C1823.92 239.837 1814.82 242.276 1807.98 247.155C1801.15 251.709 1797.74 258.051 1797.74 266.183Z" fill="white"/>
<path d="M1603.82 191.536C1627.24 191.536 1648.22 197.391 1666.76 209.1C1685.62 220.484 1700.26 235.934 1710.67 255.449C1721.08 274.965 1726.28 296.594 1726.28 320.338C1726.28 328.144 1725.63 335.3 1724.33 341.805H1536.01C1540.89 359.044 1549.5 372.542 1561.86 382.3C1574.22 391.732 1590 396.449 1609.19 396.449C1620.9 396.449 1632.12 393.846 1642.85 388.642C1653.91 383.438 1662.21 376.77 1667.74 368.639L1714.09 395.961C1702.7 412.874 1687.9 425.884 1669.69 434.992C1651.8 443.774 1631.14 448.165 1607.73 448.165C1581.71 448.165 1558.61 442.635 1538.45 431.576C1518.28 420.518 1502.67 405.231 1491.61 385.715C1480.88 366.2 1475.51 344.245 1475.51 319.85C1475.51 295.781 1480.88 273.989 1491.61 254.473C1502.67 234.958 1517.95 219.671 1537.47 208.612C1556.99 197.228 1579.1 191.536 1603.82 191.536ZM1669.69 294.48C1667.09 278.868 1659.77 266.671 1647.73 257.889C1636.02 248.781 1621.22 244.228 1603.33 244.228C1590.97 244.228 1579.59 246.505 1569.18 251.058C1559.1 255.612 1550.97 261.792 1544.79 269.598C1538.61 277.404 1535.36 285.698 1535.03 294.48H1669.69Z" fill="white"/>
<path d="M1443.4 373.032C1443.4 378.236 1444.71 381.977 1447.31 384.253C1449.91 386.53 1453.98 387.669 1459.5 387.669C1463.73 387.669 1468.77 387.181 1474.63 386.205V441.824C1462.59 443.776 1451.37 444.751 1440.96 444.751C1422.1 444.751 1407.63 439.872 1397.54 430.115C1387.79 420.032 1382.91 402.305 1382.91 376.935V100.303H1443.4V373.032Z" fill="white"/>
<path d="M1368.49 394.504C1356.45 411.092 1341.33 424.265 1323.11 434.023C1304.9 443.781 1285.22 448.66 1264.08 448.66C1240.99 448.66 1219.52 442.968 1199.68 431.584C1180.16 419.874 1164.55 404.262 1152.84 384.746C1141.46 364.906 1135.77 343.439 1135.77 320.345C1135.77 297.252 1141.46 275.948 1152.84 256.432C1164.55 236.591 1180.16 220.979 1199.68 209.595C1219.52 197.886 1240.99 192.031 1264.08 192.031C1284.9 192.031 1304.41 196.91 1322.63 206.668C1340.84 216.1 1355.96 228.948 1368 245.211L1318.23 278.875C1302.95 260.986 1284.9 252.041 1264.08 252.041C1251.72 252.041 1240.34 255.131 1229.93 261.311C1219.52 267.491 1211.22 275.785 1205.05 286.193C1198.87 296.602 1195.78 307.986 1195.78 320.345C1195.78 332.705 1198.87 344.089 1205.05 354.497C1211.22 364.906 1219.52 373.2 1229.93 379.38C1240.34 385.234 1251.72 388.162 1264.08 388.162C1284.9 388.162 1302.95 379.217 1318.23 361.328L1368.49 394.504Z" fill="white"/>
<path d="M1138.04 193L1133.64 250.083C1131.69 249.432 1128.28 249.107 1123.4 249.107C1103.23 249.107 1086.48 254.961 1073.15 266.671C1060.14 278.38 1053.63 294.318 1053.63 314.484V441.822H993.133V197.879H1053.63V238.861C1059.16 225.851 1068.59 214.955 1081.93 206.173C1095.26 197.391 1111.36 193 1130.23 193H1138.04Z" fill="white"/>
<path d="M922.379 157.381C910.995 157.381 902.05 154.291 895.545 148.111C889.04 141.931 885.787 133.475 885.787 122.741C885.787 111.682 889.04 103.063 895.545 96.8833C902.05 90.7034 910.995 87.6134 922.379 87.6134C933.763 87.6134 942.708 90.7034 949.213 96.8833C955.718 103.063 958.97 111.682 958.97 122.741C958.97 133.15 955.555 141.606 948.725 148.111C942.22 154.291 933.438 157.381 922.379 157.381ZM891.642 441.819V197.876H952.14V441.819H891.642Z" fill="white"/>
<path d="M539.69 272.037C539.69 240.162 547.496 210.726 563.109 183.73C579.046 156.733 600.513 135.429 627.51 119.817C654.506 103.879 683.942 95.91 715.817 95.91C748.343 95.91 778.429 104.367 806.076 121.28C833.723 137.868 855.028 159.986 869.989 187.633L813.882 217.394C804.125 200.155 790.464 186.332 772.9 175.924C755.336 165.19 736.308 159.823 715.817 159.823C695.651 159.823 676.786 164.865 659.222 174.948C641.984 185.031 628.323 198.692 618.24 215.93C608.157 233.169 603.115 251.871 603.115 272.037C603.115 292.203 608.157 310.906 618.24 328.144C628.323 345.383 641.984 359.044 659.222 369.127C676.786 379.21 695.651 384.251 715.817 384.251C736.959 384.251 756.149 378.885 773.388 368.151C790.952 357.417 804.613 343.106 814.37 325.217L870.477 355.954C855.515 383.926 834.211 406.369 806.564 423.282C778.917 439.87 748.668 448.164 715.817 448.164C683.942 448.164 654.506 440.358 627.51 424.746C600.513 408.808 579.046 387.341 563.109 360.345C547.496 333.348 539.69 303.913 539.69 272.037Z" fill="white"/>
<circle cx="920.327" cy="110.469" r="44.3534" fill="white"/>
</g>
<defs>
<clipPath id="clip0_2107_495">
<rect width="1942" height="554" fill="white"/>
</clipPath>
</defs>
</svg>
