<svg width="1921" height="548" viewBox="0 0 1921 548" fill="none" xmlns="http://www.w3.org/2000/svg">
<g clip-path="url(#clip0_2107_915)">
<path d="M274.507 523.779C274.507 537.743 263.196 549.183 249.33 547.902C221.913 545.37 194.983 538.711 169.458 528.109C136.153 514.275 105.892 493.999 80.4014 468.437C54.911 442.876 34.6909 412.53 20.8956 379.133C7.10034 345.736 0 309.941 0 273.792C0 237.642 7.10035 201.847 20.8956 168.45C34.6909 135.053 54.911 104.707 80.4014 79.1457C105.892 53.5844 136.153 33.3082 169.458 19.4745C194.983 8.87221 221.913 2.21339 249.33 -0.318943C263.196 -1.59967 274.507 9.84038 274.507 23.8038V142.103C201.979 142.103 143.184 201.063 143.184 273.792C143.184 346.521 201.978 405.48 274.505 405.482V142.104C347.033 142.104 405.829 201.063 405.829 273.793C405.829 346.522 347.034 405.48 274.507 405.482V523.779Z" fill="black"/>
<path d="M274.213 405.411L274.21 142.171C346.902 142.171 405.83 201.099 405.83 273.791C405.83 346.482 346.903 405.409 274.213 405.411Z" fill="black"/>
<path d="M1778.28 263.297C1778.28 270.054 1781.98 275.202 1789.38 278.741C1797.11 281.958 1809.17 285.337 1825.58 288.876C1844.24 292.736 1859.84 297.08 1872.39 301.906C1884.94 306.732 1895.72 314.454 1904.73 325.071C1914.06 335.367 1918.72 349.362 1918.72 367.058C1918.72 382.823 1913.9 396.497 1904.24 408.08C1894.91 419.662 1882.37 428.51 1866.6 434.623C1850.84 440.414 1833.62 443.31 1814.96 443.31C1789.54 443.31 1767.67 438.484 1749.33 428.832C1731.31 419.18 1717.96 405.345 1709.27 387.327L1758.5 361.749C1767.18 383.949 1786.01 395.049 1814.96 395.049C1827.51 395.049 1838.29 392.636 1847.3 387.81C1856.31 382.984 1860.81 376.067 1860.81 367.058C1860.81 359.336 1856.63 353.706 1848.26 350.167C1840.22 346.306 1827.03 342.123 1808.69 337.619C1789.71 333.115 1774.26 328.61 1762.36 324.106C1750.45 319.602 1740.16 312.684 1731.47 303.354C1722.78 293.702 1718.44 280.993 1718.44 265.228C1718.44 249.784 1722.78 236.432 1731.47 225.172C1740.16 213.589 1751.9 204.741 1766.7 198.628C1781.5 192.515 1797.75 189.459 1815.44 189.459C1836.36 189.459 1855.02 193.802 1871.43 202.489C1888.16 211.176 1901.03 223.563 1910.04 239.65L1861.29 264.263C1852.93 246.245 1837.64 237.237 1815.44 237.237C1804.18 237.237 1795.17 239.65 1788.42 244.476C1781.66 248.98 1778.28 255.254 1778.28 263.297Z" fill="black"/>
<path d="M1586.47 189.459C1609.63 189.459 1630.38 195.25 1648.72 206.832C1667.38 218.093 1681.86 233.376 1692.16 252.68C1702.45 271.984 1707.6 293.38 1707.6 316.867C1707.6 324.589 1706.96 331.667 1705.67 338.102H1519.38C1524.21 355.154 1532.74 368.506 1544.96 378.158C1557.19 387.488 1572.79 392.154 1591.77 392.154C1603.36 392.154 1614.46 389.58 1625.07 384.432C1636.01 379.284 1644.22 372.688 1649.69 364.645L1695.53 391.671C1684.27 408.401 1669.63 421.271 1651.62 430.279C1633.92 438.966 1613.49 443.31 1590.33 443.31C1564.59 443.31 1541.74 437.84 1521.8 426.901C1501.85 415.962 1486.41 400.84 1475.47 381.536C1464.85 362.232 1459.54 340.515 1459.54 316.384C1459.54 292.576 1464.85 271.019 1475.47 251.715C1486.41 232.411 1501.53 217.289 1520.83 206.35C1540.14 195.089 1562.01 189.459 1586.47 189.459ZM1651.62 291.289C1649.04 275.845 1641.8 263.78 1629.9 255.093C1618.32 246.084 1603.68 241.58 1585.98 241.58C1573.76 241.58 1562.5 243.832 1552.2 248.337C1542.23 252.841 1534.18 258.954 1528.07 266.676C1521.96 274.397 1518.74 282.602 1518.42 291.289H1651.62Z" fill="black"/>
<path d="M1427.78 368.99C1427.78 374.138 1429.07 377.838 1431.64 380.09C1434.22 382.342 1438.24 383.469 1443.71 383.469C1447.89 383.469 1452.88 382.986 1458.67 382.021V437.038C1446.77 438.968 1435.67 439.934 1425.37 439.934C1406.71 439.934 1392.39 435.107 1382.42 425.455C1372.77 415.481 1367.94 397.947 1367.94 372.851V99.213H1427.78V368.99Z" fill="black"/>
<path d="M1353.68 390.23C1341.77 406.639 1326.81 419.669 1308.79 429.321C1290.78 438.974 1271.31 443.8 1250.4 443.8C1227.56 443.8 1206.32 438.169 1186.7 426.908C1167.39 415.326 1151.95 399.882 1140.36 380.578C1129.1 360.952 1123.47 339.717 1123.47 316.874C1123.47 294.031 1129.1 272.957 1140.36 253.652C1151.95 234.026 1167.39 218.583 1186.7 207.322C1206.32 195.74 1227.56 189.948 1250.4 189.948C1270.99 189.948 1290.29 194.774 1308.31 204.427C1326.33 213.757 1341.29 226.466 1353.19 242.553L1303.97 275.852C1288.85 258.157 1270.99 249.309 1250.4 249.309C1238.17 249.309 1226.91 252.366 1216.62 258.479C1206.32 264.592 1198.12 272.796 1192 283.092C1185.89 293.387 1182.83 304.648 1182.83 316.874C1182.83 329.1 1185.89 340.361 1192 350.656C1198.12 360.952 1206.32 369.156 1216.62 375.269C1226.91 381.061 1238.17 383.956 1250.4 383.956C1270.99 383.956 1288.85 375.109 1303.97 357.413L1353.68 390.23Z" fill="black"/>
<path d="M1125.72 190.907L1121.38 247.372C1119.45 246.728 1116.07 246.406 1111.24 246.406C1091.29 246.406 1074.72 252.198 1061.53 263.78C1048.66 275.363 1042.23 291.128 1042.23 311.076V437.036H982.385V195.733H1042.23V236.272C1047.7 223.402 1057.03 212.624 1070.22 203.937C1083.41 195.25 1099.34 190.907 1118 190.907H1125.72Z" fill="black"/>
<path d="M912.397 155.673C901.136 155.673 892.288 152.617 885.853 146.504C879.419 140.391 876.201 132.026 876.201 121.408C876.201 110.469 879.419 101.943 885.853 95.8302C892.288 89.7172 901.136 86.6607 912.397 86.6607C923.658 86.6607 932.505 89.7172 938.94 95.8302C945.375 101.943 948.592 110.469 948.592 121.408C948.592 131.704 945.214 140.069 938.457 146.504C932.023 152.617 923.336 155.673 912.397 155.673ZM881.992 437.033V195.73H941.836V437.033H881.992Z" fill="black"/>
<path d="M533.849 269.089C533.849 237.558 541.571 208.441 557.015 181.737C572.78 155.033 594.014 133.959 620.719 118.515C647.423 102.75 676.54 94.8675 708.07 94.8675C740.244 94.8675 770.005 103.233 797.353 119.963C824.701 136.372 845.774 158.25 860.574 185.598L805.074 215.037C795.422 197.985 781.909 184.311 764.535 174.015C747.162 163.398 728.34 158.089 708.07 158.089C688.123 158.089 669.462 163.076 652.088 173.05C635.036 183.024 621.523 196.537 611.549 213.589C601.575 230.641 596.588 249.141 596.588 269.089C596.588 289.036 601.575 307.536 611.549 324.588C621.523 341.641 635.036 355.154 652.088 365.127C669.462 375.101 688.123 380.088 708.07 380.088C728.983 380.088 747.966 374.78 765.018 364.162C782.392 353.545 795.905 339.388 805.557 321.693L861.057 352.097C846.257 379.766 825.183 401.966 797.835 418.697C770.488 435.105 740.566 443.31 708.07 443.31C676.54 443.31 647.423 435.588 620.719 420.145C594.014 404.379 572.78 383.145 557.015 356.44C541.571 329.736 533.849 300.619 533.849 269.089Z" fill="black"/>
<circle cx="910.367" cy="109.269" r="43.8734" fill="black"/>
</g>
<defs>
<clipPath id="clip0_2107_915">
<rect width="1921" height="548" fill="white"/>
</clipPath>
</defs>
</svg>
